<?xml version="1.0" encoding="UTF-8"?>
<svg width="246px" height="184px" viewBox="0 0 246 184" version="1.1" xmlns="http://www.w3.org/2000/svg" xmlns:xlink="http://www.w3.org/1999/xlink">
    <!-- Generator: Sketch 52.6 (67491) - http://www.bohemiancoding.com/sketch -->
    <title>image2vector</title>
    <desc>Created with Sketch.</desc>
    <g id="Symbols" stroke="none" stroke-width="1" fill="none" fill-rule="evenodd">
        <g id="Logo-/-Standard-/-Color">
            <g id="image2vector">
                <g id="Group-2" transform="translate(156.000000, 0.000000)">
                    <path d="M45,0 C69.8528137,0 90,20.1658584 90,45.0417053 C90,57.017933 85.330195,67.9024586 77.7137136,75.9705564 L77.727,75.9703429 L77.5098846,76.1850636 C76.8139849,76.9126468 76.0939464,77.6169114 75.3510568,78.2965686 L45,108 L14.6499493,78.2974891 C13.9067037,77.6175473 13.1863293,76.9129752 12.4901154,76.1850636 L12.273,75.9703429 L12.2862864,75.9705564 C4.66980496,67.9024586 0,57.017933 0,45.0417053 C0,20.1658584 20.1471863,0 45,0 Z M45,14.012975 C27.8791728,14.012975 14,27.9050107 14,45.0417053 C14,62.1783998 27.8791728,76.0704356 45,76.0704356 C62.1208272,76.0704356 76,62.1783998 76,45.0417053 C76,27.9050107 62.1208272,14.012975 45,14.012975 Z" id="Shape" fill="#0196BA"></path>
                    <circle id="Oval" fill="#1C141C" cx="45" cy="45" r="17"></circle>
                </g>
                <path d="M17.3870667,115.911937 C16.8761982,115.942474 16.4585901,116.018402 16.4585901,116.079476 C16.4585901,116.141374 15.8627144,116.236285 15.1347887,116.289105 C14.406863,116.34275 13.7102992,116.440962 13.5873276,116.507813 C13.464356,116.574663 12.9609153,116.691032 12.4698544,116.766961 C11.0973595,116.978241 9.24535811,117.376867 9.16860404,117.477555 C9.13063966,117.527074 8.80711713,117.61043 8.44975679,117.66325 C8.09157113,117.71607 7.76639797,117.811807 7.72678297,117.875356 C7.68716796,117.93973 7.34548855,118.034641 6.96749539,118.086636 C6.58950223,118.13863 6.28001001,118.231891 6.28001001,118.293789 C6.28001001,118.355688 6.03241624,118.448123 5.73035184,118.499292 C5.42828743,118.550461 5.15015709,118.642071 5.11301803,118.702319 C5.07505365,118.762567 4.82745987,118.853351 4.56170922,118.90287 L4.07890136,118.993654 L4.07890136,122.976613 C4.07890136,125.166992 4.11356449,126.958746 4.15565543,126.958746 C4.35785702,126.958746 5.53970463,126.631922 5.66102558,126.542788 C5.73612902,126.486667 6.01508468,126.395058 6.28001001,126.339762 C6.54411004,126.284466 6.82306569,126.192031 6.89899445,126.133433 C6.97409789,126.075662 7.25305355,125.986528 7.51797888,125.935358 C7.78207891,125.884189 8.122933,125.785152 8.27396521,125.715 C8.54549305,125.589552 9.75705191,125.301518 11.2318855,125.011008 C11.647843,124.929302 12.0497703,124.814584 12.125699,124.755161 C12.2016278,124.695739 12.6811344,124.603304 13.1920029,124.549659 C13.702046,124.495188 14.1204795,124.401928 14.1204795,124.34168 C14.1204795,124.281432 14.6618846,124.188172 15.3237853,124.133701 C15.985686,124.07923 16.5716579,123.965337 16.6253032,123.88033 C16.7631304,123.664098 25.5056666,123.663273 25.6451444,123.879505 C25.6987897,123.963687 26.0371679,124.075929 26.3970041,124.128749 C26.7560151,124.181569 27.0498264,124.274829 27.0498264,124.336728 C27.0498264,124.397801 27.2908177,124.48611 27.5854543,124.533152 C27.8792655,124.580195 28.1565706,124.712245 28.2003121,124.826138 C28.2440537,124.940031 28.3422659,125.033292 28.4198453,125.033292 C28.8358028,125.033292 30.2809251,126.563421 30.4319573,127.162598 C30.4798255,127.353245 30.5681339,127.509229 30.6292071,127.509229 C30.6902802,127.509229 30.7835405,127.772504 30.8363605,128.093551 C30.8891805,128.415423 30.9997724,128.761229 31.0814783,128.861917 C31.1739134,128.97581 31.2523181,130.232761 31.2894571,132.187101 L31.3488796,135.328241 L23.4168004,135.373633 C17.7617586,135.40582 15.4574859,135.462767 15.3873343,135.572533 C15.333689,135.656715 14.8096155,135.770608 14.2236436,135.825079 C13.6368464,135.878724 13.1573397,135.97281 13.1573397,136.033058 C13.1573397,136.094131 12.8181363,136.185741 12.403004,136.237735 C11.9878718,136.28973 11.6164812,136.383816 11.5768662,136.447365 C11.5372511,136.511739 11.2582955,136.605825 10.9554058,136.656169 C10.6533414,136.707338 10.4065729,136.798123 10.4065729,136.85672 C10.4065729,136.916142 10.2043713,136.997023 9.95760287,137.037463 C9.33944375,137.137326 6.91385008,138.3233 6.44672316,138.754113 C6.3443844,138.849024 6.17849657,138.925778 6.07863374,138.925778 C5.97794561,138.925778 5.86075122,139.019039 5.81700966,139.132107 C5.7740934,139.246 5.66927871,139.338435 5.58592213,139.338435 C5.50174025,139.338435 5.26074898,139.509274 5.04946896,139.717253 C4.83818894,139.925232 4.40985171,140.307352 4.09705824,140.5665 C3.78426477,140.826473 3.52594194,141.104604 3.52264069,141.185484 C3.51933943,141.26719 3.3336441,141.485073 3.1099844,141.670768 C2.88632469,141.856463 2.70310529,142.060316 2.70310529,142.123039 C2.70310529,142.186588 2.57930841,142.371458 2.4282762,142.534045 C2.277244,142.696632 2.07669305,143.003648 1.9817821,143.215753 C1.88769646,143.428684 1.77132739,143.602825 1.72180864,143.602825 C1.67311519,143.602825 1.55096893,143.880955 1.4502808,144.221809 C1.35041798,144.562663 1.22249453,144.840794 1.16637327,144.840794 C1.11107733,144.840794 1.02441951,145.057026 0.974900751,145.321951 C0.925381996,145.586876 0.8337723,145.803933 0.771048544,145.803933 C0.708324788,145.803933 0.613413841,146.097745 0.560593836,146.456756 C0.507773831,146.816592 0.416989447,147.141765 0.359217567,147.178904 C-0.120289042,147.494174 -0.11946373,155.875223 0.360042879,156.459544 C0.424417261,156.537949 0.520978832,156.895309 0.573798837,157.255145 C0.627444155,157.614156 0.719053851,157.907968 0.777651045,157.907968 C0.836248238,157.907968 0.924556684,158.120898 0.973250126,158.380047 C1.0698117,158.895042 1.99333647,160.837827 2.17655587,160.91128 C2.23927962,160.936865 2.290449,161.04168 2.290449,161.145669 C2.290449,161.248833 2.36967901,161.382534 2.46624058,161.443607 C2.56197684,161.503855 2.74354561,161.714309 2.8673425,161.909908 C3.1495994,162.353927 4.50558797,163.685156 4.67560236,163.685156 C4.7176933,163.685156 4.9207202,163.841965 5.12704834,164.032612 C5.33337649,164.22326 5.64616995,164.416383 5.82196153,164.460124 C5.99775311,164.504691 6.14218281,164.585572 6.14218281,164.640868 C6.14218281,164.800153 8.21701864,165.715425 8.8244487,165.823541 C9.12733841,165.878011 9.43848126,165.972097 9.51523533,166.03317 C9.59281471,166.094243 9.99556725,166.187504 10.4098742,166.241974 C10.8241811,166.295619 11.2071261,166.407862 11.2607714,166.491219 C11.3985986,166.703324 19.5923019,166.704149 19.7301291,166.492044 C19.7845998,166.408687 20.197256,166.298095 20.648702,166.246101 C21.0993227,166.194931 21.5020752,166.104147 21.5425156,166.044724 C21.5837812,165.986127 21.9848831,165.857379 22.4355038,165.758341 C22.8852991,165.660129 23.3499501,165.526428 23.4671445,165.462054 C23.8905298,165.230966 24.9749906,164.786123 25.1169443,164.786123 C25.1969997,164.786123 25.2621993,164.730827 25.2621993,164.663151 C25.2621993,164.595476 25.4313884,164.498089 25.6385419,164.446094 C25.8456953,164.394099 26.0470716,164.309917 26.0858613,164.258748 C26.1931519,164.118445 26.6635801,163.831236 27.0844895,163.650493 C27.2924683,163.560534 27.4624827,163.44664 27.4624827,163.397122 C27.4624827,163.346778 27.648178,163.229583 27.875139,163.135498 C28.1020999,163.041412 28.2877953,162.907711 28.2877953,162.83921 C28.2877953,162.769884 28.3967365,162.674148 28.5287865,162.625454 C28.6608366,162.576761 28.9059544,162.392716 29.0726675,162.216925 C29.2393807,162.041133 29.4300279,161.897529 29.4977035,161.897529 C29.5645538,161.897529 30.0556148,161.46424 30.5887667,160.934389 C31.7805181,159.750065 31.6748781,159.719529 31.7920725,161.277719 C31.8457178,161.996566 31.9398034,162.615551 32.0000513,162.65269 C32.0602991,162.689829 32.1543847,163.340175 32.20803,164.096987 C32.2625007,164.853798 32.3623635,165.473608 32.4292138,165.473608 C32.4968894,165.473608 32.5521854,165.566043 32.5521854,165.679936 C32.5521854,165.859029 33.110922,165.886264 36.7563276,165.886264 L40.9596446,165.886264 L40.9167284,147.449607 C40.8861918,134.043229 40.8317212,128.985714 40.720304,128.913912 C40.6352968,128.860266 40.5222289,128.336193 40.4677583,127.750221 C40.4132877,127.163424 40.3125996,126.683917 40.2432733,126.683917 C40.173947,126.683917 40.1178258,126.527108 40.1178258,126.335635 C40.1178258,125.510322 39.0077804,122.878401 38.3640366,122.175234 C38.2691256,122.07207 38.1915462,121.905357 38.1915462,121.805494 C38.1915462,121.705631 38.0991112,121.588437 37.9852181,121.544695 C37.8721503,121.500954 37.7788899,121.396965 37.7788899,121.312783 C37.7788899,121.132039 35.9772326,119.26023 35.8006157,119.257754 C35.7337654,119.256929 35.534865,119.10177 35.3598988,118.911948 C35.1849325,118.722952 34.9810803,118.568618 34.9068022,118.568618 C34.8333493,118.568618 34.6905703,118.491039 34.5907074,118.396128 C34.1574183,117.986773 31.9290744,117.021157 30.763733,116.7389 C30.4237042,116.656369 30.1125614,116.541651 30.0721211,116.484704 C30.0325061,116.427757 29.5686804,116.337798 29.0404803,116.284978 C28.5131056,116.232158 28.0377256,116.120741 27.9832549,116.037385 C27.885868,115.887178 19.484186,115.787315 17.3870667,115.911937 M71.0695235,115.911937 C70.73032,115.945775 70.3902912,116.02418 70.3127118,116.086903 C70.2359578,116.148802 69.7861624,116.242887 69.3132583,116.296533 C68.8403542,116.351003 68.4532826,116.441788 68.4532826,116.49956 C68.4532826,116.558157 68.1652485,116.644815 67.8136653,116.692683 C67.4620822,116.741376 67.1063725,116.834637 67.0230159,116.899836 C66.9396593,116.965861 66.5468105,117.095435 66.1490099,117.188696 C65.7520345,117.281956 65.4268614,117.413181 65.4268614,117.481682 C65.4268614,117.549357 65.3253479,117.605479 65.201551,117.605479 C64.9671623,117.605479 63.7613806,118.154311 63.6375837,118.316898 C63.598794,118.367242 63.3974177,118.451424 63.1902643,118.503419 C62.9831108,118.555413 62.8139217,118.649499 62.8139217,118.711397 C62.8139217,118.774121 62.6769198,118.868207 62.5102067,118.921027 C62.3434936,118.973847 62.1297376,119.086089 62.0340013,119.171097 C61.7022257,119.464908 61.504976,119.601084 61.1286334,119.795033 C60.9206547,119.902323 60.7506403,120.041801 60.7506403,120.104525 C60.7506403,120.167249 60.6796634,120.219243 60.5930056,120.219243 C60.5071731,120.219243 60.2438984,120.399162 60.0086843,120.620345 C59.7734702,120.840704 59.2254626,121.351572 58.7913482,121.75515 C58.3564085,122.158728 58.0006988,122.532595 57.9998735,122.587065 C57.9998735,122.641536 57.7984972,122.896557 57.552554,123.15488 C56.8914787,123.848968 56.4862502,124.35406 56.4862502,124.485284 C56.4862502,124.548833 56.4086708,124.68501 56.3145852,124.788174 C56.0942267,125.029165 55.8408557,125.422839 55.6287504,125.858604 C55.5354901,126.047601 55.4182957,126.233296 55.3679516,126.271261 C55.2169194,126.383503 54.5607959,127.886397 54.5607959,128.119135 C54.5607959,128.237981 54.5013734,128.334542 54.4295712,128.334542 C54.3569437,128.334542 54.2570809,128.550774 54.2075621,128.815699 C54.1580434,129.080625 54.0647831,129.297682 54.001234,129.297682 C53.9376849,129.297682 53.8444246,129.514739 53.7949059,129.78049 C53.7445618,130.04624 53.6546027,130.293834 53.5943549,130.330973 C53.5332818,130.368938 53.4408468,130.661924 53.3880268,130.98297 C53.3343814,131.304017 53.2435971,131.62919 53.1849999,131.704293 C53.1264027,131.780222 53.0372689,132.120251 52.9860995,132.461105 C52.9357555,132.801134 52.8383686,133.203886 52.7690423,133.354918 C52.649372,133.619019 52.5206232,134.454235 52.2061791,137.000324 C52.0171826,138.528803 52.1104429,147.358822 52.3184217,147.614669 C52.4001276,147.715357 52.5107195,148.309582 52.5651901,148.933519 C52.6196607,149.55828 52.7129211,150.099685 52.7731689,150.136824 C52.8334167,150.173964 52.9258517,150.576716 52.9786717,151.030638 C53.0314917,151.48456 53.1222761,151.855951 53.1808733,151.855951 C53.2394705,151.855951 53.3277789,152.165443 53.378123,152.543436 C53.4284671,152.922254 53.5225527,153.231747 53.5869271,153.231747 C53.6513015,153.231747 53.7453871,153.509877 53.7965565,153.850731 C53.8477259,154.19076 53.9451127,154.469716 54.0127884,154.469716 C54.080464,154.469716 54.1762003,154.685947 54.225719,154.950873 C54.2752378,155.215798 54.3660222,155.43203 54.4270953,155.43203 C54.4881684,155.43203 54.5797781,155.617725 54.6292969,155.844686 C54.6788156,156.071647 54.7770278,156.257343 54.8463541,156.257343 C54.9165057,156.257343 54.9734522,156.334097 54.9734522,156.427357 C54.9734522,156.665047 55.6840464,158.045795 55.8061926,158.045795 C55.8614886,158.045795 55.9448451,158.200128 55.9927133,158.38995 C56.0397561,158.578947 56.1396189,158.73328 56.213897,158.73328 C56.2881752,158.73328 56.348423,158.81251 56.348423,158.909072 C56.348423,159.005633 56.4573642,159.189678 56.5894143,159.316776 C56.7214643,159.443874 57.1398977,159.896971 57.5178909,160.322007 C58.5916226,161.53109 59.8279408,162.722841 60.007859,162.722841 C60.0969927,162.722841 60.2067593,162.815276 60.2496755,162.929169 C60.2934171,163.042237 60.4147381,163.135498 60.5187274,163.135498 C60.6854406,163.135498 60.8604069,163.252692 61.5297354,163.81473 C61.6172185,163.889008 61.8499566,163.989696 62.0455557,164.03839 C62.2411548,164.087908 62.4012654,164.177867 62.4012654,164.239766 C62.4012654,164.300839 62.5869608,164.392449 62.8139217,164.441967 C63.0408827,164.491486 63.226578,164.589698 63.226578,164.659025 C63.226578,164.729176 63.3033321,164.787773 63.398243,164.790249 C63.493154,164.792725 63.8175018,164.914872 64.1203915,165.060952 C64.4232813,165.207032 64.7666113,165.329178 64.8838057,165.331654 C65.0010001,165.33413 65.1561588,165.394378 65.227961,165.46618 C65.2997632,165.537983 65.7759686,165.67581 66.2868371,165.773197 C66.7977056,165.869758 67.2153137,165.991904 67.2153137,166.043074 C67.2153137,166.095069 67.6948203,166.182552 68.2816176,166.236197 C68.8675895,166.290668 69.391663,166.404561 69.4453083,166.488743 C69.5847861,166.70745 78.8769805,166.7058 79.015633,166.487092 C79.0692783,166.402085 79.5619899,166.287366 80.1108228,166.232896 C80.6596556,166.178425 81.1078004,166.090942 81.1078004,166.039773 C81.1078004,165.987778 81.5567704,165.863981 82.1056033,165.763293 C82.6536108,165.66343 83.1644793,165.533031 83.2404081,165.474433 C83.3155115,165.415836 83.5829128,165.324227 83.8338078,165.270581 C84.0847028,165.216111 84.4560935,165.085711 84.6591204,164.980071 C84.8621473,164.874431 85.1369764,164.786948 85.2690264,164.786948 C85.4010764,164.786123 85.5100177,164.730827 85.5100177,164.663151 C85.5100177,164.595476 85.6800321,164.50139 85.8880108,164.454347 C86.3303784,164.352834 87.9760517,163.55228 88.2261214,163.317066 C88.3565208,163.194095 88.3986117,162.145948 88.3986117,159.001507 L88.3986117,154.847709 L87.9578948,154.936017 C87.7160782,154.983885 87.4841654,155.07632 87.4420744,155.140695 C87.4008088,155.205069 87.2118122,155.300805 87.0228156,155.353625 C86.8338191,155.406445 86.5548634,155.503832 86.4038312,155.570683 C85.1105664,156.141799 84.8101526,156.257343 84.6228067,156.257343 C84.5056123,156.257343 84.4090507,156.311813 84.4090507,156.377838 C84.4090507,156.443863 84.1614569,156.537124 83.8593925,156.585817 C83.5565028,156.633685 83.308909,156.72612 83.308909,156.79132 C83.308909,156.855694 83.0150977,156.97619 82.6552615,157.058721 C81.2266454,157.387196 80.2032578,157.659549 79.995279,157.76849 C79.8756087,157.831214 79.4109577,157.927775 78.9636383,157.983071 C78.5163189,158.038367 78.1061385,158.15226 78.0524932,158.236442 C77.9121901,158.455975 71.5944223,158.449373 71.3286716,158.22984 C71.2222063,158.142357 70.8879547,158.025987 70.585065,157.971517 C70.2830006,157.917046 69.9735084,157.824611 69.8975796,157.766839 C69.8216508,157.709067 69.497303,157.58362 69.1754311,157.487884 C68.8535592,157.392973 68.5911098,157.269176 68.5911098,157.21388 C68.5911098,157.157759 68.4285232,157.071926 68.2304482,157.022407 C68.0323732,156.972889 67.7922072,156.857345 67.6972963,156.76656 C67.60156,156.675776 67.3812015,156.508238 67.2070606,156.39517 C67.0320943,156.281277 66.463454,155.755553 65.9426817,155.225702 C64.6675738,153.927485 64.6015488,153.851556 64.6015488,153.666686 C64.6015488,153.578378 64.541301,153.506576 64.4670228,153.506576 C64.3927447,153.506576 64.2928819,153.352242 64.2458391,153.16242 C64.1979709,152.973424 64.113789,152.81909 64.0584931,152.81909 C64.0031972,152.81909 63.876099,152.571497 63.7762362,152.268607 C63.6763734,151.965717 63.5476246,151.718123 63.490678,151.718123 C63.4329062,151.718123 63.3429471,151.517572 63.2901271,151.271629 C63.2373071,151.025686 63.1465227,150.762411 63.0887508,150.686483 C63.0309789,150.611379 62.9377186,150.332424 62.8824227,150.067498 C62.8271267,149.802573 62.724788,149.515364 62.6554617,149.428706 C62.5861355,149.342048 62.4912245,148.955802 62.4458323,148.569556 C62.4004401,148.18331 62.3146076,147.867215 62.2568357,147.867215 C62.1982385,147.867215 62.1058035,147.324985 62.0513329,146.663084 C61.9968623,146.001183 61.8912223,145.420988 61.8169441,145.37312 C61.6337247,145.255926 61.6353754,137.684508 61.8185948,137.567314 C61.8920476,137.520271 61.9968623,136.940076 62.0513329,136.279001 C62.1058035,135.6171 62.2007145,135.044333 62.2626129,135.006369 C62.3236861,134.968405 62.4169464,134.565652 62.4697664,134.11173 C62.5225864,133.657808 62.6174973,133.286418 62.6810464,133.286418 C62.7445955,133.286418 62.8386811,133.007462 62.8898505,132.667433 C62.9410199,132.326579 63.0342802,132.048449 63.0978293,132.048449 C63.1613783,132.048449 63.2546386,131.831391 63.3041574,131.567291 C63.3536762,131.302366 63.4395087,131.085309 63.4948046,131.085309 C63.5501006,131.085309 63.6722468,130.827811 63.7671578,130.513367 C63.8612434,130.198923 64.0097997,129.860545 64.0981081,129.761508 C64.4785772,129.334821 64.5734881,129.190391 64.6634472,128.90896 C64.7154419,128.743897 64.8177807,128.609371 64.8904082,128.609371 C64.9630357,128.609371 65.0604226,128.511984 65.1066401,128.393139 C65.2865582,127.924362 67.7245316,125.658053 68.2147673,125.50372 C68.3839563,125.4509 68.7380154,125.29244 69.0012901,125.151311 C69.2653902,125.011008 69.5592014,124.895465 69.6549377,124.895465 C69.750674,124.895465 69.8290787,124.840994 69.8290787,124.773318 C69.8290787,124.706468 70.0609915,124.608256 70.344899,124.55461 C70.6279812,124.50179 70.928395,124.401928 71.0117516,124.333427 C71.0951082,124.2641 71.5440782,124.168364 72.0095545,124.119671 C72.4742055,124.070977 72.8546746,123.978542 72.8546746,123.913343 C72.8546746,123.848143 74.0002084,123.795323 75.3999386,123.795323 C76.7988434,123.795323 77.9443773,123.848968 77.9443773,123.914993 C77.9443773,123.981018 78.4395648,124.078405 79.0445189,124.131225 C79.6502984,124.184045 80.1454859,124.278131 80.1454859,124.34168 C80.1454859,124.404404 80.5168766,124.499315 80.9707985,124.552135 C81.4247204,124.604955 81.7961111,124.698215 81.7961111,124.759288 C81.7961111,124.821186 82.0486567,124.914447 82.3573236,124.966441 C82.6659905,125.018436 83.0819481,125.14636 83.282499,125.249524 C83.4822247,125.353513 83.9105619,125.478135 84.2340844,125.526829 C84.557607,125.574697 84.821707,125.667132 84.821707,125.730681 C84.821707,125.79423 85.0387642,125.886665 85.3036895,125.936184 C85.5677896,125.986528 85.7848468,126.076487 85.7848468,126.138385 C85.7848468,126.199458 85.9705421,126.290243 86.1975031,126.339762 C86.424464,126.390106 86.6101593,126.487493 86.6101593,126.557644 C86.6101593,126.62697 86.688564,126.683917 86.7843003,126.683917 C86.8800366,126.683917 87.1887035,126.807714 87.4717857,126.958746 C88.4489558,127.482819 88.3986117,127.694925 88.3986117,123.110313 L88.3986117,118.986226 L88.0643601,118.902045 C87.8811407,118.856652 87.697096,118.731205 87.6558304,118.62474 C87.6153901,118.518274 87.4866413,118.430791 87.3710975,118.430791 C87.2555538,118.430791 87.1606428,118.373845 87.1606428,118.304518 C87.1606428,118.234367 86.9749475,118.13698 86.7479865,118.086636 C86.5210256,118.037117 86.3353303,117.942206 86.3353303,117.876181 C86.3353303,117.809331 86.118273,117.715245 85.8533477,117.664901 C85.5892477,117.615382 85.3721905,117.526249 85.3721905,117.466001 C85.3721905,117.406578 85.0470173,117.281956 84.650042,117.188696 C84.2530666,117.095435 83.865995,116.971638 83.7900663,116.912216 C83.7149628,116.853619 83.3584278,116.762009 82.9994168,116.708364 C82.6404058,116.655544 82.3457692,116.563109 82.3457692,116.503686 C82.3457692,116.444264 81.8976245,116.351003 81.3487916,116.296533 C80.7999588,116.241237 80.3080725,116.128169 80.2544272,116.043987 C80.1570403,115.888828 72.4048792,115.778236 71.0695235,115.911937 M115.186607,115.911937 C114.675739,115.942474 114.258131,116.018402 114.258131,116.081126 C114.258131,116.143025 113.639972,116.238761 112.883985,116.291581 C112.127999,116.345226 111.479303,116.438487 111.44299,116.497909 C111.40585,116.557332 110.987417,116.648941 110.512862,116.701761 C110.038308,116.754581 109.402817,116.880029 109.099927,116.981542 C108.797037,117.08223 108.193734,117.209328 107.758794,117.263799 C107.323854,117.317444 106.968145,117.409054 106.968145,117.466001 C106.968145,117.522947 106.658653,117.611256 106.279834,117.6616 C105.901841,117.711119 105.592349,117.804379 105.592349,117.867928 C105.592349,117.930652 105.285332,118.023087 104.91064,118.073431 C104.535123,118.12295 104.194269,118.218686 104.153004,118.285536 C104.111738,118.352386 103.830306,118.448948 103.528242,118.499292 C103.226178,118.550461 102.978584,118.641246 102.978584,118.700668 C102.978584,118.760091 102.73099,118.847574 102.428926,118.896267 L101.878442,118.984576 L101.878442,122.971661 C101.878442,125.164516 101.913105,126.958746 101.955196,126.958746 C102.172253,126.958746 103.342547,126.629446 103.467169,126.532885 C103.546399,126.470986 103.871572,126.379377 104.189317,126.328207 C104.507063,126.277863 104.767036,126.184603 104.767036,126.121054 C104.767036,126.057505 105.076528,125.964244 105.454521,125.914726 C105.83334,125.864382 106.142832,125.774422 106.142832,125.715825 C106.142832,125.656403 106.590977,125.533431 107.13981,125.442647 C107.688643,125.351862 108.198686,125.228891 108.274615,125.170294 C108.350543,125.111696 108.73679,125.020087 109.133765,124.967267 C109.531566,124.913621 109.887275,124.820361 109.924414,124.759288 C109.962379,124.698215 110.426204,124.604955 110.956055,124.552135 C111.485906,124.498489 111.92002,124.40688 111.92002,124.347457 C111.92002,124.28886 112.461425,124.195599 113.123326,124.140304 C113.785227,124.085833 114.371199,123.970289 114.424844,123.883631 C114.561846,123.664098 123.303557,123.659972 123.444685,123.879505 C123.49833,123.963687 123.835883,124.075104 124.193244,124.127924 C124.550604,124.180744 124.874952,124.274829 124.913741,124.337553 C124.952531,124.400277 125.195173,124.491887 125.453496,124.539755 C125.711819,124.588448 125.958587,124.719673 126.001503,124.83109 C126.043594,124.942507 126.173994,125.033292 126.289538,125.033292 C126.405081,125.033292 126.499992,125.087762 126.499992,125.153787 C126.499992,125.220638 126.684037,125.351037 126.908522,125.444297 C127.133007,125.536732 127.348414,125.715 127.388029,125.838797 C127.427644,125.963419 127.613339,126.229995 127.79986,126.431371 C127.98638,126.632748 128.179503,126.957095 128.229022,127.15352 C128.277716,127.349119 128.362723,127.509229 128.418019,127.509229 C128.538514,127.509229 128.81747,128.541696 128.975105,129.572511 C129.038654,129.988468 129.0956,131.454224 129.102203,132.828369 L129.113757,135.328241 L121.199835,135.373633 C115.557173,135.40582 113.257027,135.462767 113.186875,135.572533 C113.13323,135.656715 112.609156,135.770608 112.023184,135.825079 C111.436387,135.878724 110.95688,135.97281 110.95688,136.033058 C110.95688,136.094131 110.617677,136.185741 110.202545,136.237735 C109.787413,136.28973 109.416022,136.383816 109.376407,136.447365 C109.336792,136.511739 109.057836,136.605825 108.754946,136.656169 C108.452882,136.707338 108.206114,136.798123 108.206114,136.85672 C108.206114,136.916142 108.003912,136.997023 107.757144,137.037463 C107.138984,137.137326 104.713391,138.3233 104.246264,138.754113 C104.143925,138.849024 103.978037,138.925778 103.878174,138.925778 C103.777486,138.925778 103.660292,139.019039 103.61655,139.132107 C103.573634,139.246 103.468819,139.338435 103.384638,139.338435 C103.29963,139.338435 103.026452,139.539811 102.776382,139.785754 C102.526312,140.031697 102.175555,140.363473 101.997287,140.523584 C101.395634,141.061687 100.502646,142.066093 100.502646,142.204745 C100.502646,142.279849 100.456428,142.36238 100.399482,142.387965 C100.20966,142.472147 99.6905384,143.296634 99.599754,143.658121 C99.5502353,143.854545 99.4602762,144.015481 99.3983778,144.015481 C99.3373046,144.015481 99.2456949,144.201176 99.1961762,144.428137 C99.1466574,144.655098 99.0517465,144.840794 98.9848962,144.840794 C98.9188712,144.840794 98.8239602,145.057026 98.7744415,145.321951 C98.7249227,145.586876 98.6308371,145.803933 98.5664627,145.803933 C98.5020883,145.803933 98.4080027,146.113426 98.3576586,146.491419 C98.3073145,146.869412 98.2173555,147.178904 98.1571076,147.178904 C98.0968598,147.178904 98.0035995,147.737641 97.9507795,148.420174 C97.8971342,149.102708 97.7997473,149.694457 97.7337223,149.734897 C97.5793888,149.830634 97.5769129,153.466961 97.730421,153.562697 C97.7947954,153.602312 97.8864051,154.232026 97.9342733,154.963252 C97.9829667,155.693654 98.0795283,156.361332 98.1488545,156.447164 C98.2190061,156.532172 98.3205195,156.895309 98.3733395,157.255145 C98.4269849,157.614156 98.5177692,157.907968 98.5755411,157.907968 C98.633313,157.907968 98.7191455,158.109344 98.7670136,158.355287 C98.8627499,158.847173 99.8085581,160.838653 99.9818738,160.91128 C100.041296,160.936865 100.08999,161.024348 100.08999,161.106054 C100.08999,161.27937 100.15684,161.3586 101.416267,162.687353 C101.935389,163.23536 102.430576,163.68433 102.517234,163.68433 C102.603892,163.685156 102.70458,163.764386 102.741719,163.861773 C102.778858,163.958334 103.048735,164.159711 103.340896,164.308267 C103.633882,164.457648 103.903759,164.617759 103.941724,164.663977 C104.071298,164.824087 105.168138,165.335781 105.380243,165.335781 C105.497438,165.335781 105.592349,165.393553 105.592349,165.463704 C105.592349,165.533856 105.948058,165.668382 106.382998,165.761642 C106.817938,165.854903 107.238022,165.979525 107.314776,166.037297 C107.392355,166.095894 107.795108,166.186678 108.209415,166.239498 C108.623722,166.292318 109.049583,166.404561 109.155223,166.489568 C109.42345,166.702499 117.391843,166.704975 117.52967,166.492044 C117.58414,166.408687 117.995146,166.298095 118.444116,166.246926 C118.893086,166.194931 119.326375,166.100846 119.407256,166.037297 C119.488137,165.974573 119.887588,165.844174 120.296118,165.748437 C120.703822,165.652701 121.19901,165.490114 121.396259,165.38695 C121.593509,165.284612 121.863386,165.199604 121.995436,165.199604 C122.127486,165.198779 122.236427,165.141833 122.236427,165.071681 C122.236427,165.002355 122.422123,164.904142 122.649084,164.854624 C122.876045,164.805105 123.06174,164.713495 123.06174,164.652422 C123.06174,164.590524 123.230929,164.498089 123.438083,164.446094 C123.645236,164.394099 123.846612,164.309917 123.885402,164.258748 C123.975361,164.140728 124.409475,163.868375 124.849367,163.652969 C125.039189,163.560534 125.224059,163.44664 125.262023,163.399598 C125.299988,163.352555 125.481557,163.234535 125.666427,163.137148 C126.042769,162.939073 126.200404,162.817752 126.788026,162.275522 C127.013337,162.067543 127.243599,161.897529 127.300545,161.897529 C127.356667,161.897529 127.865059,161.450209 128.429573,160.903027 L129.455437,159.909351 L129.629578,161.281846 C129.726139,162.036181 129.870569,163.210601 129.951449,163.891484 C130.03233,164.572367 130.170983,165.300293 130.259291,165.508271 L130.418576,165.886264 L134.588881,165.886264 L138.75836,165.886264 L138.716269,147.449607 C138.685733,134.143917 138.631262,128.984888 138.521495,128.913912 C138.437313,128.860266 138.32342,128.352699 138.26895,127.785709 C138.130297,126.358744 137.433733,124.318571 136.47472,122.535071 C136.399617,122.395593 136.291501,122.282525 136.233729,122.282525 C136.175957,122.282525 136.128914,122.188439 136.128914,122.074546 C136.128914,121.960653 136.005117,121.760927 135.854085,121.631353 C135.702228,121.501779 135.578431,121.33259 135.577605,121.254185 C135.57678,121.018146 132.941557,118.568618 132.688186,118.568618 C132.624637,118.568618 132.490111,118.488563 132.390248,118.390351 C132.11872,118.1246 130.227104,117.192822 129.958877,117.192822 C129.830129,117.192822 129.600692,117.106164 129.448834,116.999699 C129.296977,116.893234 128.881019,116.762009 128.524484,116.708364 C128.167949,116.655544 127.875788,116.561458 127.875788,116.500385 C127.875788,116.439312 127.45818,116.346052 126.947312,116.293232 C126.436443,116.239586 125.932177,116.126518 125.825712,116.041511 C125.634239,115.887178 117.305185,115.78649 115.186607,115.911937 M171.963161,115.911112 C171.661097,115.9466 171.351604,116.02583 171.27485,116.086903 C171.198922,116.148802 170.811025,116.242887 170.414049,116.296533 C170.016249,116.349353 169.691901,116.441788 169.691901,116.500385 C169.691901,116.558982 169.431927,116.648941 169.114182,116.700111 C168.796437,116.750455 168.471264,116.841239 168.392033,116.900662 C168.311978,116.960084 167.844851,117.149906 167.352965,117.323222 C166.861079,117.495712 166.11087,117.84647 165.685008,118.103142 C165.258322,118.358989 164.847316,118.568618 164.770562,118.568618 C164.694633,118.568618 164.595596,118.661053 164.552679,118.774946 C164.508938,118.888014 164.378538,118.981275 164.262995,118.981275 C164.146626,118.981275 164.051715,119.041522 164.051715,119.115801 C164.051715,119.190079 163.901508,119.288291 163.718288,119.334508 C163.534244,119.380726 163.351024,119.505348 163.309759,119.612639 C163.268493,119.719104 163.163678,119.806587 163.07537,119.806587 C162.897102,119.806587 162.158448,120.419794 161.017866,121.514984 L160.253626,122.249512 L160.099293,121.888026 C160.014286,121.6883 159.902043,121.108105 159.850048,120.597237 C159.798054,120.086368 159.708095,119.66876 159.650323,119.66876 C159.592551,119.66876 159.501766,119.204934 159.448121,118.637119 C159.395301,118.07013 159.295438,117.605479 159.226112,117.605479 C159.156786,117.605479 159.099839,117.388421 159.099839,117.124321 L159.099839,116.642339 L155.179604,116.642339 L151.25937,116.642339 L151.294033,150.03366 L151.328696,183.424157 L156.177407,183.460471 L161.026119,183.496784 L161.026119,173.390832 L161.026119,163.285705 L161.472613,163.520093 C161.718556,163.648842 161.951294,163.795748 161.990084,163.846092 C162.028874,163.897261 162.23025,163.981443 162.437403,164.033438 C162.644557,164.085432 162.813746,164.177867 162.813746,164.239766 C162.813746,164.300839 162.999441,164.392449 163.226402,164.441967 C163.453363,164.491486 163.639058,164.589698 163.639058,164.659025 C163.639058,164.729176 163.748,164.786123 163.88005,164.786948 C164.0121,164.786948 164.293531,164.877732 164.504811,164.987499 C164.716091,165.098091 165.103163,165.22849 165.364787,165.277184 C165.626411,165.326703 165.840167,165.417487 165.840167,165.480211 C165.840167,165.542109 166.304818,165.670858 166.871808,165.766594 C167.439623,165.861505 167.903448,165.984477 167.903448,166.039773 C167.903448,166.094243 168.321057,166.183377 168.831925,166.237848 C169.342794,166.291493 169.804969,166.404561 169.858614,166.488743 C169.998092,166.70745 178.327972,166.7058 178.465799,166.487092 C178.519444,166.402085 178.950257,166.287366 179.423161,166.232896 C179.896066,166.178425 180.283137,166.086815 180.283137,166.028218 C180.283137,165.969621 180.588503,165.881313 180.961544,165.831794 C181.573926,165.750088 182.08562,165.57182 183.398692,164.980897 C183.637207,164.873606 183.900482,164.786123 183.983839,164.786123 C184.06637,164.786123 184.134871,164.724224 184.134871,164.648296 C184.134871,164.572367 184.213276,164.510468 184.309837,164.510468 C184.405573,164.510468 184.814103,164.294236 185.21603,164.029311 C185.617958,163.764386 186.003379,163.548154 186.072705,163.548154 C186.141206,163.548154 186.198152,163.48378 186.198152,163.4062 C186.198152,163.327795 186.306268,163.222981 186.438318,163.171811 C187.025941,162.947326 189.636405,160.577029 189.636405,160.268362 C189.636405,160.214716 189.745346,160.073588 189.877396,159.954743 C190.009446,159.835898 190.210822,159.598208 190.324715,159.425718 C190.437783,159.253227 190.607798,159.032043 190.702708,158.933006 C190.797619,158.833968 190.874373,158.723377 190.874373,158.686238 C190.874373,158.649924 191.093081,158.289262 191.360483,157.885684 C191.627884,157.482106 191.88208,157.012504 191.925822,156.842489 C191.969563,156.67165 192.060348,156.532997 192.127198,156.532997 C192.194874,156.532997 192.25017,156.455418 192.250995,156.360507 C192.25182,156.266421 192.338478,156.022954 192.444118,155.819927 C192.550583,155.6169 192.678507,155.26119 192.729676,155.029277 C192.780846,154.796539 192.879058,154.606717 192.949209,154.606717 C193.018536,154.606717 193.075482,154.498601 193.076307,154.366551 C193.077133,154.233676 193.170393,153.947293 193.284286,153.72941 C193.397354,153.510702 193.528579,153.093094 193.575622,152.800934 C193.622664,152.507948 193.709322,152.268607 193.767919,152.268607 C193.826517,152.268607 193.918952,151.94591 193.973422,151.552236 C194.027893,151.157736 194.124454,150.740128 194.188829,150.623759 C194.254028,150.506565 194.372874,150.008901 194.453754,149.51784 C194.534635,149.025954 194.658432,148.313709 194.728583,147.935716 C194.797909,147.557723 194.897772,145.961568 194.949767,144.388522 C195.000936,142.816302 195.095847,141.497452 195.160222,141.457837 C195.324459,141.356324 195.305477,140.576404 195.138764,140.576404 C195.053756,140.576404 195.000936,139.834448 195.000936,138.624539 C195.000936,136.438286 194.756644,132.877888 194.591581,132.667433 C194.532984,132.591504 194.441374,132.112823 194.387729,131.60278 C194.334909,131.092737 194.241649,130.645417 194.181401,130.607453 C194.120328,130.569489 194.027893,130.198923 193.975898,129.782966 C193.923903,129.367008 193.827342,128.993142 193.761317,128.952701 C193.695292,128.911436 193.600381,128.601118 193.549212,128.26274 C193.498867,127.923536 193.409734,127.647057 193.351962,127.647057 C193.29419,127.647057 193.207532,127.448982 193.159664,127.207165 C193.04412,126.630272 192.639717,125.720777 192.498589,125.720777 C192.437516,125.720777 192.387997,125.59698 192.387997,125.445948 C192.387997,125.158739 191.707114,123.76066 191.528021,123.680604 C191.471074,123.655845 191.424857,123.57579 191.424857,123.503162 C191.424857,123.348829 190.853741,122.509486 190.702708,122.442636 C190.645762,122.417876 190.599544,122.312236 190.599544,122.209072 C190.599544,122.105083 190.521965,121.971382 190.427879,121.911134 C190.332968,121.850061 190.007795,121.492701 189.705731,121.115533 C189.124711,120.391734 188.396785,119.679489 188.231723,119.672887 C188.177252,119.670411 187.951116,119.498746 187.729933,119.290767 C187.121677,118.720476 186.712322,118.430791 186.513422,118.430791 C186.416035,118.430791 186.335154,118.383748 186.335154,118.325976 C186.335154,118.268205 186.222086,118.160089 186.082609,118.084985 C185.186319,117.603003 184.21245,117.184569 183.378059,116.92212 C182.848209,116.755407 182.30928,116.563934 182.17888,116.495433 C182.049306,116.426932 181.58548,116.329545 181.147239,116.280027 C180.709824,116.229682 180.309547,116.122392 180.257552,116.042337 C180.160166,115.89378 173.073206,115.781538 171.963161,115.911112 M219.107492,115.911937 C218.634587,115.942474 218.247516,116.019228 218.247516,116.081126 C218.247516,116.14385 217.752328,116.237936 217.147374,116.290756 C216.541595,116.343576 216.046407,116.436011 216.046407,116.495433 C216.046407,116.555681 215.759198,116.644815 215.40679,116.692683 C215.055207,116.741376 214.699497,116.834637 214.61614,116.899836 C214.532784,116.965861 214.139935,117.095435 213.74296,117.188696 C213.345159,117.281956 213.020811,117.406578 213.020811,117.466001 C213.020811,117.526249 212.803754,117.615382 212.538829,117.664901 C212.273903,117.715245 212.057671,117.809331 212.057671,117.876181 C212.057671,117.942206 211.871976,118.037117 211.645015,118.086636 C211.418054,118.13698 211.232359,118.23024 211.232359,118.294615 C211.232359,118.359814 211.096182,118.45555 210.929469,118.50837 C210.762756,118.561191 210.553127,118.673433 210.464818,118.75844 C210.375684,118.842622 210.16523,119.005209 209.996866,119.118276 C209.094799,119.725707 207.380625,121.414296 207.380625,121.694902 C207.380625,121.791464 207.323679,121.869869 207.253527,121.869869 C207.184201,121.869869 206.951463,122.225578 206.737707,122.660518 C206.523951,123.095458 206.31102,123.482529 206.263152,123.520494 C206.216109,123.557633 206.133578,123.790371 206.080758,124.036314 C206.027112,124.282257 205.932202,124.482808 205.868652,124.482808 C205.805929,124.482808 205.711018,124.746083 205.658198,125.067955 C205.605378,125.389001 205.507991,125.719127 205.442791,125.800007 C205.377591,125.881713 205.282681,126.391756 205.232336,126.934812 C205.181992,127.477868 205.087907,127.921886 205.022707,127.921886 C204.958333,127.921886 204.904687,128.943623 204.904687,130.191495 C204.904687,131.439368 204.958333,132.461105 205.022707,132.461105 C205.087907,132.461105 205.181992,132.907599 205.232336,133.452305 C205.283506,133.997837 205.382543,134.478994 205.452695,134.522736 C205.522021,134.565652 205.621884,134.862765 205.672228,135.182161 C205.723397,135.500731 205.812531,135.762355 205.870303,135.762355 C205.928075,135.762355 206.014733,135.919165 206.062601,136.110637 C206.320924,137.138151 208.130834,139.474611 209.363026,140.370075 C209.717085,140.627573 210.142946,140.959349 210.486276,141.244907 C210.567982,141.312582 210.769359,141.410795 210.933596,141.463615 C211.097833,141.515609 211.232359,141.61052 211.232359,141.67572 C211.232359,141.740094 211.418054,141.833355 211.645015,141.883699 C211.871976,141.933217 212.057671,142.03143 212.057671,142.100756 C212.057671,142.170082 212.122871,142.227029 212.202926,142.227029 C212.282982,142.227029 212.623011,142.352476 212.958913,142.505984 C213.29564,142.658667 213.756165,142.821254 213.983126,142.866646 C214.210087,142.912038 214.395782,142.997871 214.395782,143.058118 C214.395782,143.117541 214.643376,143.2075 214.946266,143.258669 C215.249155,143.309839 215.496749,143.402274 215.496749,143.464172 C215.496749,143.526071 215.806241,143.619331 216.184234,143.671326 C216.562228,143.72332 216.87172,143.819882 216.87172,143.885907 C216.87172,143.951932 217.181212,144.046843 217.56003,144.097187 C217.938024,144.147531 218.247516,144.236665 218.247516,144.295262 C218.247516,144.353859 218.557008,144.444644 218.935001,144.496638 C219.312994,144.548633 219.656324,144.64602 219.69759,144.712045 C219.73803,144.778895 220.078884,144.873806 220.454402,144.923325 C220.829094,144.972844 221.13611,145.060327 221.13611,145.118099 C221.13611,145.175045 221.429921,145.26583 221.789757,145.319475 C222.148768,145.37312 222.504478,145.46473 222.580407,145.523327 C222.656336,145.581924 223.135842,145.711498 223.646711,145.811361 C224.156754,145.910399 224.575187,146.036672 224.575187,146.091968 C224.575187,146.147263 224.822781,146.233921 225.124846,146.285091 C225.427735,146.33626 225.675329,146.426219 225.675329,146.485642 C225.675329,146.545064 225.922923,146.633373 226.225813,146.682066 C226.527877,146.729934 226.775471,146.82567 226.775471,146.894997 C226.775471,146.963498 226.961166,147.060885 227.188127,147.110403 C227.415088,147.159922 227.600783,147.259785 227.600783,147.331587 C227.600783,147.404215 227.704773,147.502427 227.831045,147.55112 C228.525959,147.817696 229.939719,149.722518 229.939719,150.392671 C229.939719,150.516468 230.001618,150.617982 230.076721,150.617982 C230.249211,150.617982 230.264892,153.596535 230.093227,153.703 C230.025552,153.744266 229.92899,154.057885 229.877821,154.398739 C229.826651,154.740418 229.733391,155.019374 229.670667,155.019374 C229.607943,155.019374 229.517984,155.174532 229.470116,155.364354 C229.355398,155.820752 227.72293,157.459823 227.269833,157.573716 C227.073409,157.62241 226.913298,157.718146 226.913298,157.785821 C226.913298,157.852672 226.805182,157.908793 226.672307,157.908793 C226.540257,157.909618 226.258,158.000403 226.045069,158.11182 C225.832138,158.223237 225.336951,158.355287 224.944102,158.406457 C224.552079,158.457626 224.189766,158.562441 224.139422,158.64002 C224.009023,158.841396 217.789467,158.842222 217.541048,158.640845 C217.437884,158.557489 216.842008,158.444421 216.218072,158.390776 C215.593311,158.336305 215.051906,158.243045 215.014766,158.182797 C214.977627,158.122549 214.513802,158.030114 213.983951,157.977294 C213.4541,157.923649 213.020811,157.832039 213.020811,157.772616 C213.020811,157.713194 212.664276,157.620759 212.229336,157.566288 C211.794397,157.512643 211.191093,157.385545 210.888204,157.285682 C210.586139,157.184994 210.043083,157.060372 209.683247,157.008377 C209.322586,156.956382 208.998238,156.864773 208.961099,156.804525 C208.92396,156.745102 208.583931,156.653493 208.205938,156.601498 C207.827944,156.549503 207.518452,156.456243 207.518452,156.39517 C207.518452,156.334097 207.20896,156.240836 206.830967,156.188842 C206.452148,156.136847 206.142656,156.037809 206.142656,155.969308 C206.142656,155.900808 205.926424,155.844686 205.661499,155.844686 L205.180342,155.844686 L205.180342,159.971249 C205.180342,164.006202 205.186119,164.097812 205.455171,164.097812 C205.606203,164.097812 205.73,164.157235 205.73,164.229037 C205.73,164.301664 205.956961,164.403178 206.233441,164.455172 C206.50992,164.507167 206.896992,164.63344 207.092591,164.735779 C207.289015,164.838117 207.585303,164.922299 207.75119,164.922299 C207.917078,164.923125 208.088743,164.981722 208.132485,165.052699 C208.176226,165.124501 208.505526,165.225189 208.862886,165.276358 C209.220247,165.328353 209.575131,165.419138 209.650235,165.47856 C209.726163,165.537983 210.313786,165.664255 210.95753,165.759166 C211.600448,165.854077 212.188071,165.977874 212.264,166.033995 C212.339928,166.090942 212.927551,166.180901 213.570469,166.235372 C214.213388,166.289017 214.826595,166.40291 214.93306,166.487917 C215.202112,166.704149 226.056623,166.706625 226.196101,166.491219 C226.249747,166.407862 226.725952,166.296445 227.253327,166.243625 C227.780701,166.190805 228.245352,166.095894 228.284967,166.03317 C228.324582,165.970446 228.697624,165.87471 229.114407,165.820239 C229.530364,165.764944 230.056088,165.638671 230.283049,165.538808 C230.51001,165.43812 230.897082,165.315973 231.143025,165.266455 C231.388968,165.216936 231.590344,165.119549 231.590344,165.050223 C231.590344,164.980071 231.668749,164.923125 231.76366,164.923125 C232.639317,164.923125 236.954876,161.553373 236.954876,160.870015 C236.954876,160.770152 237.047311,160.652957 237.161204,160.609216 C237.274272,160.5663 237.367532,160.440852 237.367532,160.331085 C237.367532,160.221319 237.41375,160.111552 237.470696,160.085968 C237.597795,160.029846 238.192845,158.827366 238.192845,158.626815 C238.192845,158.54676 238.239888,158.460927 238.29766,158.435342 C238.435487,158.375095 239.022284,156.543726 239.019808,156.182239 C239.018983,156.02708 239.094912,155.822403 239.189823,155.728317 C239.421735,155.496404 239.437416,148.692527 239.207154,148.403668 C239.122147,148.298028 239.009904,147.918384 238.958735,147.561024 C238.90674,147.202838 238.81348,146.87849 238.750756,146.839701 C238.688032,146.800911 238.595597,146.552492 238.546079,146.286741 C238.495735,146.020991 238.400824,145.803933 238.334799,145.803933 C238.268774,145.803933 238.173863,145.618238 238.123519,145.391277 C238.074,145.164316 237.975788,144.978621 237.906461,144.978621 C237.837135,144.978621 237.780189,144.88371 237.780189,144.767341 C237.780189,144.651797 237.686928,144.521398 237.573861,144.477656 C237.459967,144.43474 237.367532,144.324973 237.367532,144.235014 C237.367532,143.775315 234.459956,140.857835 233.788977,140.644905 C233.63877,140.597036 233.515799,140.504601 233.515799,140.438576 C233.515799,140.373377 233.298741,140.241327 233.034641,140.14559 C232.769716,140.049854 232.552659,139.926883 232.552659,139.872412 C232.552659,139.817941 232.366963,139.732109 232.140002,139.68259 C231.913042,139.633071 231.727346,139.539811 231.727346,139.476262 C231.727346,139.412713 231.541651,139.319453 231.31469,139.269934 C231.087729,139.220415 230.902034,139.125504 230.902034,139.058654 C230.902034,138.992629 230.685802,138.897718 230.420876,138.848199 C230.155951,138.79868 229.939719,138.707896 229.939719,138.646823 C229.939719,138.58575 229.738343,138.492489 229.4924,138.439669 C229.246457,138.386849 228.983182,138.296065 228.908078,138.238293 C228.83215,138.180521 228.553194,138.087261 228.289094,138.031965 C228.024169,137.976669 227.745213,137.883409 227.67011,137.825637 C227.594181,137.76704 227.253327,137.674605 226.913298,137.619309 C226.572444,137.564013 226.23159,137.469102 226.15401,137.407203 C226.077256,137.345305 225.582069,137.220683 225.053869,137.130724 C224.525669,137.039939 224.025529,136.912016 223.942173,136.845991 C223.858816,136.779966 223.503106,136.68588 223.151523,136.638012 C222.799115,136.589318 222.511906,136.504311 222.511906,136.447365 C222.511906,136.390418 222.171052,136.30211 221.755094,136.250115 C221.339137,136.19812 220.998283,136.10486 220.998283,136.042962 C220.998283,135.981888 220.719327,135.889453 220.378473,135.838284 C220.037619,135.787115 219.589474,135.656715 219.381495,135.548599 C219.174342,135.439658 218.86485,135.35135 218.694835,135.350524 C218.523996,135.349699 218.385343,135.294403 218.385343,135.227553 C218.385343,135.159877 218.168286,135.064966 217.90336,135.014622 C217.638435,134.965103 217.421378,134.880921 217.421378,134.827276 C217.420553,134.774456 217.281075,134.663039 217.111886,134.580508 C216.52839,134.2966 215.840079,133.905402 215.771578,133.819569 C215.733614,133.771701 215.57928,133.563723 215.427423,133.357394 C215.276391,133.150241 215.083267,132.907599 214.999086,132.81764 C214.914078,132.727681 214.797709,132.502371 214.739937,132.317501 C214.68134,132.131805 214.577351,131.942809 214.507199,131.898242 C214.437873,131.85285 214.344613,131.464127 214.300046,131.03414 C214.255479,130.604152 214.166345,130.219556 214.101145,130.179116 C213.948463,130.08503 213.947637,129.335646 214.10032,129.241561 C214.16552,129.20112 214.256304,128.752976 214.304172,128.245408 C214.351215,127.737841 214.445301,127.28722 214.512151,127.244304 C214.579001,127.200563 214.68134,127.015693 214.738287,126.831648 C214.85383,126.461083 214.940488,126.343888 215.633751,125.611011 C216.137192,125.079509 216.434304,124.860801 217.009547,124.600003 C217.942975,124.177443 218.242564,124.070152 218.497586,124.070152 C218.650268,124.070152 218.795523,124.009904 218.820283,123.935626 C218.845867,123.861348 219.501166,123.759009 220.276134,123.708665 C221.051928,123.657496 221.686593,123.564235 221.686593,123.499861 C221.686593,123.347178 225.499537,123.346353 225.593623,123.499036 C225.633238,123.56341 226.423888,123.659146 227.350714,123.711141 C228.27754,123.763961 229.069014,123.857221 229.109455,123.919945 C229.149895,123.982669 229.59969,124.07758 230.109734,124.13205 C230.619777,124.185696 231.067921,124.279781 231.105061,124.340029 C231.143025,124.401102 231.514416,124.493537 231.930373,124.545532 C232.345505,124.597527 232.718547,124.692438 232.758162,124.755987 C232.796951,124.819536 233.092413,124.915272 233.41346,124.968092 C233.734506,125.020912 234.058854,125.112522 234.134783,125.171119 C234.210712,125.229716 234.62832,125.356814 235.06326,125.452551 C235.498199,125.548287 235.853909,125.672084 235.853909,125.72738 C235.853909,125.782676 236.066014,125.867683 236.325988,125.916376 C236.585136,125.96507 236.817049,126.061631 236.841808,126.131783 C236.865742,126.201109 237.148825,126.300147 237.470696,126.351316 L238.055018,126.443751 L238.055018,122.437684 C238.055018,118.96807 238.027782,118.430791 237.84869,118.430791 C237.734796,118.430791 237.642361,118.373845 237.642361,118.304518 C237.642361,118.234367 237.45254,118.136155 237.220627,118.084985 C236.988714,118.033816 236.632179,117.905892 236.429152,117.799427 C236.22695,117.693787 235.952121,117.607129 235.820071,117.606304 C235.687196,117.605479 235.57908,117.551833 235.57908,117.485808 C235.57908,117.419783 235.20934,117.29351 234.757894,117.204377 C234.306448,117.116068 233.904521,116.989795 233.86408,116.925421 C233.824465,116.860221 233.420062,116.764485 232.965315,116.711665 C232.511393,116.658845 232.109466,116.56641 232.071502,116.505337 C232.034362,116.445089 231.554856,116.351003 231.006023,116.297358 C230.45719,116.243713 229.921562,116.128994 229.816748,116.043987 C229.6261,115.888828 221.062657,115.783188 219.107492,115.911937 M176.764004,123.502337 C176.80527,123.567537 177.211324,123.664098 177.666896,123.715268 C178.122469,123.766437 178.494685,123.859697 178.494685,123.922421 C178.494685,123.984319 178.742279,124.075104 179.045168,124.122972 C179.348058,124.171665 179.595652,124.272354 179.595652,124.347457 C179.595652,124.421735 179.65755,124.482808 179.734304,124.482808 C180.122201,124.482808 182.208591,126.211838 182.208591,126.532885 C182.208591,126.607988 182.292773,126.719405 182.394287,126.780478 C182.579157,126.88942 182.872968,127.368926 183.198966,128.093551 C183.293052,128.30153 183.411072,128.472369 183.461416,128.472369 C183.512585,128.472369 183.594291,128.688601 183.64381,128.953527 C183.694154,129.218452 183.786589,129.434684 183.850138,129.434684 C183.913687,129.434684 184.007773,129.713639 184.058942,130.053668 C184.109286,130.394522 184.207498,130.672653 184.275999,130.672653 C184.3445,130.672653 184.441062,130.982145 184.491406,131.360963 C184.54175,131.738956 184.629233,132.048449 184.68618,132.048449 C184.743126,132.048449 184.834736,132.527955 184.889207,133.114753 C184.944503,133.700724 185.044365,134.214894 185.112041,134.256985 C185.179717,134.299901 185.275453,135.367031 185.324972,136.629759 C185.375316,137.892487 185.467751,138.925778 185.532125,138.925778 C185.683157,138.925778 185.683157,142.739548 185.532125,142.832808 C185.467751,142.872423 185.375316,143.847117 185.324972,144.999254 C185.275453,146.15139 185.180542,147.12856 185.113692,147.171476 C185.047667,147.213567 184.948629,147.696375 184.893333,148.245208 C184.838863,148.794041 184.746428,149.242186 184.688656,149.242186 C184.630059,149.242186 184.54175,149.549202 184.492231,149.924719 C184.442713,150.299411 184.346976,150.640265 184.280126,150.681531 C184.213276,150.722796 184.116714,151.004228 184.065545,151.306292 C184.014375,151.608357 183.916163,151.855951 183.847662,151.855951 C183.778336,151.855951 183.722215,151.964067 183.721389,152.096942 C183.721389,152.380024 182.693875,154.41607 182.406666,154.704104 C182.297725,154.813046 182.208591,154.958301 182.208591,155.027627 C182.208591,155.243033 179.953837,157.450745 179.628664,157.553909 C179.45865,157.607554 179.319997,157.704116 179.319997,157.769315 C179.319997,157.83369 179.134302,157.92695 178.907341,157.977294 C178.68038,158.026813 178.494685,158.125025 178.494685,158.194351 C178.494685,158.263677 178.417931,158.321449 178.32302,158.321449 C178.228109,158.322275 177.978039,158.413059 177.766759,158.522826 C177.555479,158.633418 177.153552,158.765468 176.872946,158.816637 C176.592339,158.868632 176.318336,158.979223 176.26469,159.06258 C176.128514,159.273035 170.40167,159.265607 170.267969,159.054327 C170.215974,158.971796 169.785986,158.859553 169.313082,158.805083 C168.840178,158.750612 168.42257,158.656526 168.384606,158.595453 C168.346641,158.53438 168.006613,158.441945 167.628619,158.38995 C167.250626,158.337956 166.909772,158.244695 166.870982,158.182797 C166.833018,158.120073 166.554888,158.027638 166.252823,157.977294 C165.950759,157.926125 165.672629,157.83369 165.634664,157.772616 C165.5967,157.710718 165.255846,157.586096 164.877853,157.495311 C164.499034,157.404527 164.189542,157.277429 164.189542,157.213055 C164.189542,157.14868 163.972485,157.054595 163.708385,157.005076 C163.443459,156.955557 163.226402,156.864773 163.226402,156.8037 C163.226402,156.742626 163.040707,156.651017 162.813746,156.601498 C162.586785,156.551979 162.401089,156.458719 162.401089,156.39517 C162.401089,156.331621 162.215394,156.23836 161.988433,156.188842 C161.761472,156.139323 161.575777,156.048539 161.575777,155.987465 C161.575777,155.927218 161.45198,155.844686 161.300948,155.805071 C161.028595,155.734094 161.026119,155.617725 161.026119,142.565407 L161.026119,129.39837 L161.335611,129.130969 C161.505625,128.984063 161.844003,128.682824 162.088296,128.46164 C162.331763,128.240456 162.591737,128.059713 162.666015,128.059713 C162.739468,128.059713 162.85006,127.978832 162.910307,127.88062 C162.970555,127.782408 163.237131,127.552971 163.502056,127.371402 C163.766156,127.189834 164.01375,127.007439 164.051715,126.965349 C164.152403,126.855582 164.620355,126.569198 165.014854,126.376075 C165.203851,126.28364 165.408529,126.129307 165.468776,126.033571 C165.529024,125.937009 165.668502,125.858604 165.778269,125.858604 C165.888035,125.858604 165.977994,125.796706 165.977994,125.720777 C165.977994,125.645674 166.054748,125.58295 166.149659,125.582125 C166.24457,125.581299 166.630816,125.428616 167.009635,125.242921 C167.387628,125.056401 167.7747,124.902067 167.868785,124.900416 C167.963696,124.89794 168.041276,124.840994 168.041276,124.773318 C168.041276,124.706468 168.257508,124.610732 168.522433,124.561213 C168.787358,124.510869 169.00359,124.417609 169.00359,124.352409 C169.00359,124.287209 169.313082,124.191473 169.691901,124.139478 C170.069894,124.087484 170.379386,123.992573 170.379386,123.928198 C170.379386,123.864649 170.812675,123.768913 171.342526,123.716918 C171.871551,123.664923 172.30484,123.568362 172.30484,123.502337 C172.30484,123.346353 176.667443,123.345528 176.764004,123.502337 M31.3142165,146.95607 L31.3142165,152.785253 L30.776938,153.339037 C30.4814761,153.643578 30.1100854,153.933262 29.9516254,153.983606 C29.7931654,154.03395 29.6635913,154.119783 29.6635913,154.173428 C29.6635913,154.227074 29.3169601,154.516758 28.8935747,154.817172 C28.4701893,155.117586 28.0410268,155.441108 27.9403387,155.535194 C27.8396505,155.630105 27.6894436,155.707684 27.6060871,155.707684 C27.5227305,155.707684 27.4195664,155.796818 27.3783008,155.904934 C27.3362099,156.013875 27.1216286,156.142624 26.9012701,156.191318 C26.6800864,156.240011 26.5001682,156.332446 26.5001682,156.39682 C26.5001682,156.461195 26.3631663,156.557756 26.1964532,156.610576 C26.02974,156.663396 25.8093816,156.79132 25.7053922,156.894484 C25.6022281,156.998473 25.4289125,157.082655 25.3207965,157.082655 C25.2126806,157.082655 25.1243721,157.137126 25.1243721,157.202325 C25.1243721,157.26835 24.8454165,157.400401 24.5053877,157.495311 C24.1645336,157.591048 23.8864033,157.719796 23.8864033,157.78252 C23.8864033,157.844419 23.6701714,157.936028 23.405246,157.986372 C23.1403207,158.035891 22.9232635,158.12585 22.9232635,158.186923 C22.9232635,158.247171 22.676495,158.338781 22.3744306,158.38995 C22.0715409,158.440294 21.7934106,158.532729 21.7546209,158.595453 C21.7166565,158.657352 21.3601215,158.751437 20.9631461,158.805083 C20.5661708,158.857903 20.1683701,158.961067 20.0792363,159.032869 C19.8745588,159.197931 15.7504719,159.197106 15.6440065,159.031218 C15.600265,158.964368 15.2701399,158.866156 14.9103037,158.81251 C14.5504674,158.75969 14.0866417,158.62764 13.8786629,158.519524 C13.6715095,158.411408 13.4239157,158.322275 13.3290048,158.321449 C13.2349191,158.321449 13.1573397,158.265328 13.1573397,158.198478 C13.1573397,158.130802 13.0120847,158.039192 12.8338172,157.994626 C11.9466062,157.771791 9.99391662,155.236431 9.99391662,154.307954 C9.99391662,154.199838 9.91633724,154.034776 9.82142629,153.939865 C9.69680409,153.815243 9.64976128,153.098046 9.64976128,151.333528 C9.64976128,148.791565 9.75787723,148.135441 10.4189526,146.664734 C10.5633823,146.344513 10.681402,146.01934 10.681402,145.942586 C10.681402,145.865832 10.7433004,145.803933 10.8192292,145.803933 C10.8943326,145.803933 10.9562311,145.720577 10.9562311,145.618238 C10.9562311,145.516725 11.080028,145.321951 11.2318855,145.184949 C11.3829177,145.047947 11.5067146,144.880409 11.5067146,144.812733 C11.5067146,144.680683 12.4822341,143.742303 12.6200613,143.740652 C12.6918634,143.740652 12.8453716,143.625934 13.5089229,143.074625 C13.5889782,143.0086 13.8984704,142.874899 14.1964083,142.779163 C14.4951714,142.682601 14.8013624,142.55963 14.8764658,142.505159 C15.1207584,142.330193 16.4379572,141.949724 17.1114123,141.859765 C17.4712486,141.811897 17.8021989,141.71616 17.8467658,141.647659 C17.892158,141.579984 19.0550234,141.486723 20.4316448,141.441331 C21.8074409,141.395939 22.9661798,141.306805 23.0057948,141.243256 C23.0454098,141.178882 24.9304237,141.126887 27.1959067,141.126887 L31.3142165,141.126887 L31.3142165,146.95607 M129.113757,146.95607 L129.113757,152.785253 L128.564099,153.352242 C128.261209,153.66421 127.962446,153.919232 127.900548,153.919232 C127.838649,153.919232 127.583628,154.101626 127.333558,154.325286 C127.083488,154.54812 126.623789,154.90383 126.310996,155.115935 C125.999028,155.328041 125.723373,155.547574 125.697788,155.60452 C125.673029,155.660642 125.562437,155.707684 125.452671,155.707684 C125.342904,155.707684 125.219107,155.796818 125.177842,155.904934 C125.135751,156.013875 124.921169,156.142624 124.700811,156.191318 C124.479627,156.240011 124.299709,156.322542 124.299709,156.374537 C124.299709,156.426532 124.005072,156.622956 123.646061,156.810302 C123.28705,156.998473 122.971781,157.198199 122.947022,157.255145 C122.921437,157.311267 122.829002,157.35831 122.740693,157.359135 C122.652385,157.35996 122.270265,157.512643 121.892272,157.699164 C121.514279,157.884859 121.095845,158.039192 120.963795,158.041668 C120.831745,158.044144 120.722804,158.101916 120.722804,158.171242 C120.722804,158.240569 120.476036,158.338781 120.173971,158.38995 C119.871082,158.440294 119.592951,158.532729 119.554162,158.595453 C119.516197,158.657352 119.159662,158.751437 118.762687,158.805083 C118.365711,158.857903 117.967911,158.961067 117.878777,159.032869 C117.6741,159.197931 113.550013,159.197106 113.443547,159.031218 C113.399806,158.964368 113.069681,158.866156 112.709844,158.81251 C112.350008,158.75969 111.886182,158.62764 111.678204,158.519524 C111.47105,158.411408 111.223456,158.322275 111.128545,158.321449 C111.03446,158.321449 110.95688,158.265328 110.95688,158.198478 C110.95688,158.130802 110.811625,158.039192 110.633358,157.994626 C109.746147,157.771791 107.793457,155.236431 107.793457,154.307954 C107.793457,154.199838 107.715878,154.034776 107.620967,153.939865 C107.39153,153.710428 107.375849,148.689226 107.603635,148.403668 C107.687817,148.298028 107.797584,147.988536 107.846277,147.716183 C107.894971,147.44383 108.058383,146.967624 108.207764,146.656481 C108.357971,146.346164 108.480943,146.026768 108.480943,145.947538 C108.480943,145.868308 108.542841,145.803933 108.61877,145.803933 C108.693873,145.803933 108.755772,145.720577 108.755772,145.618238 C108.755772,145.516725 108.879569,145.321951 109.031426,145.184949 C109.182458,145.047947 109.306255,144.880409 109.306255,144.812733 C109.306255,144.679032 109.795666,144.204478 110.269395,143.877654 C110.540098,143.691959 110.901585,143.413003 111.308464,143.074625 C111.388519,143.0086 111.688107,142.87655 111.975316,142.781639 C112.2617,142.687553 112.661151,142.524141 112.861702,142.419327 C113.062253,142.314512 113.361841,142.228679 113.527729,142.227854 C113.693617,142.227854 113.864457,142.170082 113.908198,142.099105 C113.95194,142.028954 114.342313,141.928266 114.776427,141.876271 C115.209716,141.823451 115.639704,141.720287 115.732139,141.647659 C115.823749,141.574206 117.0155,141.479296 118.379742,141.437205 C119.743983,141.395114 120.860631,141.308456 120.860631,141.244081 C120.860631,141.179707 122.717585,141.126887 124.987194,141.126887 L129.113757,141.126887 L129.113757,146.95607" id="path2" fill="#000000"></path>
            </g>
        </g>
    </g>
</svg>